<svg width="101" height="101" viewBox="0 0 101 101" fill="none" xmlns="http://www.w3.org/2000/svg">
<path d="M84 51C84 69.2254 69.2254 84 51 84C32.7746 84 18 69.2254 18 51C18 32.7746 32.7746 18 51 18C69.2254 18 84 32.7746 84 51Z" fill="#F5F5F5"/>
<g filter="url(#filter0_f_1027_289)">
<circle cx="50.5" cy="50.5" r="16.5" fill="#FCD64A" fill-opacity="0.7"/>
</g>
<path d="M58.2097 45.3615C57.1697 43.2615 55.1597 41.7115 52.8297 41.2015C50.3897 40.6615 47.8897 41.2415 45.9797 42.7815C44.0597 44.3115 42.9697 46.6015 42.9697 49.0515C42.9697 51.6415 44.5197 54.3515 46.8597 55.9215V56.7515C46.8497 57.0315 46.8397 57.4615 47.1797 57.8115C47.5297 58.1715 48.0497 58.2115 48.4597 58.2115H53.5897C54.1297 58.2115 54.5397 58.0615 54.8197 57.7815C55.1997 57.3915 55.1897 56.8915 55.1797 56.6215V55.9215C58.2797 53.8315 60.2297 49.4215 58.2097 45.3615Z" fill="#FBCB18"/>
<path d="M54.2602 60.9984C54.2002 60.9984 54.1302 60.9884 54.0702 60.9684C52.0602 60.3984 49.9502 60.3984 47.9402 60.9684C47.5702 61.0684 47.1802 60.8584 47.0802 60.4884C46.9702 60.1184 47.1902 59.7284 47.5602 59.6284C49.8202 58.9884 52.2002 58.9884 54.4602 59.6284C54.8302 59.7384 55.0502 60.1184 54.9402 60.4884C54.8402 60.7984 54.5602 60.9984 54.2602 60.9984Z" fill="#FBCB18"/>
<defs>
<filter id="filter0_f_1027_289" x="0" y="0" width="101" height="101" filterUnits="userSpaceOnUse" color-interpolation-filters="sRGB">
<feFlood flood-opacity="0" result="BackgroundImageFix"/>
<feBlend mode="normal" in="SourceGraphic" in2="BackgroundImageFix" result="shape"/>
<feGaussianBlur stdDeviation="17" result="effect1_foregroundBlur_1027_289"/>
</filter>
</defs>
</svg>
