<svg width="38" height="38" viewBox="0 0 38 38" fill="none" xmlns="http://www.w3.org/2000/svg">
<circle cx="19" cy="19" r="18.5" fill="#F4D7DA" stroke="white"/>
<path d="M13.2773 22.1676V14.9659H14.7102V22.1676H13.2773ZM10.3956 19.2805V17.853H17.5973V19.2805H10.3956ZM19.6001 24V22.8068L23.2915 18.9822C23.6857 18.5668 24.0107 18.2028 24.2663 17.8903C24.5256 17.5742 24.7191 17.2741 24.8469 16.9901C24.9748 16.706 25.0387 16.4041 25.0387 16.0845C25.0387 15.7223 24.9535 15.4098 24.783 15.147C24.6126 14.8807 24.38 14.6765 24.0852 14.5344C23.7905 14.3888 23.4585 14.3161 23.0891 14.3161C22.6985 14.3161 22.3576 14.396 22.0664 14.5558C21.7752 14.7156 21.5515 14.9411 21.3952 15.2322C21.239 15.5234 21.1609 15.8643 21.1609 16.255H19.5895C19.5895 15.5909 19.7422 15.0103 20.0476 14.5131C20.353 14.016 20.772 13.6307 21.3047 13.3572C21.8374 13.0803 22.4428 12.9418 23.1211 12.9418C23.8065 12.9418 24.4102 13.0785 24.9322 13.3519C25.4577 13.6218 25.8679 13.9911 26.1626 14.4599C26.4574 14.9251 26.6048 15.4506 26.6048 16.0366C26.6048 16.4414 26.5284 16.8374 26.3757 17.2244C26.2266 17.6115 25.9656 18.043 25.5927 18.5188C25.2198 18.9911 24.7013 19.5646 24.0373 20.2393L21.8693 22.5085V22.5884H26.7805V24H19.6001Z" fill="#D25B68"/>
</svg>
