<svg width="30" height="30" viewBox="0 0 30 30" fill="none" xmlns="http://www.w3.org/2000/svg">
<path d="M11.25 27.5H18.75C25 27.5 27.5 25 27.5 18.75V11.25C27.5 5 25 2.5 18.75 2.5H11.25C5 2.5 2.5 5 2.5 11.25V18.75C2.5 25 5 27.5 11.25 27.5Z" fill="#5030E5" fill-opacity="0.2"/>
<path d="M16.137 9.80166L9.64949 16.2892C9.39949 16.5392 9.162 17.0267 9.112 17.3767L8.76201 19.8517C8.63701 20.7517 9.262 21.3767 10.162 21.2517L12.637 20.9017C12.987 20.8517 13.4745 20.6142 13.7245 20.3642L20.212 13.8767C21.3245 12.7642 21.862 11.4642 20.212 9.81415C18.562 8.15165 17.262 8.67666 16.137 9.80166Z" stroke="#5030E5" stroke-width="1.5" stroke-miterlimit="10" stroke-linecap="round" stroke-linejoin="round"/>
<path d="M15.2119 10.7266C15.7619 12.6891 17.2994 14.2391 19.2744 14.7891" stroke="#5030E5" stroke-width="1.5" stroke-miterlimit="10" stroke-linecap="round" stroke-linejoin="round"/>
</svg>
