<svg width="40" height="40" viewBox="0 0 40 40" fill="none" xmlns="http://www.w3.org/2000/svg">
<rect width="40" height="40" rx="6" fill="white"/>
<path d="M25.925 21.125L14.075 21.125C12.95 21.125 12.5 21.6 12.5 22.8L12.5 25.825C12.5 27.025 12.95 27.5 14.075 27.5L25.925 27.5C27.05 27.5 27.5 27.025 27.5 25.825L27.5 22.8C27.5 21.6 27.05 21.125 25.925 21.125Z" fill="white"/>
<path d="M25.925 12.5L14.075 12.5C12.95 12.5 12.5 12.975 12.5 14.175L12.5 17.2C12.5 18.3917 12.95 18.875 14.075 18.875L25.925 18.875C27.05 18.875 27.5 18.4 27.5 17.2L27.5 14.175C27.5 12.975 27.05 12.5 25.925 12.5Z" fill="white"/>
<path d="M24.1953 18C25.576 18 26.6953 16.8807 26.6953 15.5C26.6953 14.1193 25.576 13 24.1953 13C22.8146 13 21.6953 14.1193 21.6953 15.5C21.6953 16.8807 22.8146 18 24.1953 18Z" stroke="#787486" stroke-width="1.5" stroke-miterlimit="10" stroke-linecap="round" stroke-linejoin="round"/>
<path d="M14.5 18C15.8807 18 17 16.8807 17 15.5C17 14.1193 15.8807 13 14.5 13C13.1193 13 12 14.1193 12 15.5C12 16.8807 13.1193 18 14.5 18Z" stroke="#787486" stroke-width="1.5" stroke-miterlimit="10" stroke-linecap="round" stroke-linejoin="round"/>
<path d="M24.1953 28C25.576 28 26.6953 26.8807 26.6953 25.5C26.6953 24.1193 25.576 23 24.1953 23C22.8146 23 21.6953 24.1193 21.6953 25.5C21.6953 26.8807 22.8146 28 24.1953 28Z" stroke="#787486" stroke-width="1.5" stroke-miterlimit="10" stroke-linecap="round" stroke-linejoin="round"/>
<path d="M14.5 28C15.8807 28 17 26.8807 17 25.5C17 24.1193 15.8807 23 14.5 23C13.1193 23 12 24.1193 12 25.5C12 26.8807 13.1193 28 14.5 28Z" stroke="#787486" stroke-width="1.5" stroke-miterlimit="10" stroke-linecap="round" stroke-linejoin="round"/>
</svg>
