<svg width="30" height="30" viewBox="0 0 30 30" fill="none" xmlns="http://www.w3.org/2000/svg">
<path d="M11.25 27.5H18.75C25 27.5 27.5 25 27.5 18.75V11.25C27.5 5 25 2.5 18.75 2.5H11.25C5 2.5 2.5 5 2.5 11.25V18.75C2.5 25 5 27.5 11.25 27.5Z" fill="#5030E5" fill-opacity="0.2"/>
<path d="M16.9941 19.3154H18.0008C20.3837 19.3154 22.3175 17.3815 22.3175 14.9987C22.3175 12.6159 20.3837 10.682 18.0008 10.682H17.0008C16.6367 10.682 16.3508 10.9772 16.3508 11.332C16.3508 11.6882 16.6446 11.982 17.0008 11.982H18.0008C19.6646 11.982 21.0175 13.3349 21.0175 14.9987C21.0175 16.6625 19.6646 18.0154 18.0008 18.0154H16.9941C16.638 18.0154 16.3441 18.3092 16.3441 18.6654C16.3441 19.0215 16.638 19.3154 16.9941 19.3154Z" fill="#5030E5" stroke="#5030E5" stroke-width="0.3"/>
<path d="M12.0007 19.3154H13.0007C13.3568 19.3154 13.6507 19.0215 13.6507 18.6654C13.6507 18.3092 13.3568 18.0154 13.0007 18.0154H12.0007C10.3368 18.0154 8.98398 16.6625 8.98398 14.9987C8.98398 13.3349 10.3368 11.982 12.0007 11.982H13.0007C13.3568 11.982 13.6507 11.6882 13.6507 11.332C13.6507 10.9759 13.3568 10.682 13.0007 10.682H12.0007C9.61781 10.682 7.68398 12.6159 7.68398 14.9987C7.68398 17.3815 9.61781 19.3154 12.0007 19.3154Z" fill="#5030E5" stroke="#5030E5" stroke-width="0.3"/>
<path d="M12.334 15.65H17.6673C18.0235 15.65 18.3173 15.3562 18.3173 15C18.3173 14.6438 18.0235 14.35 17.6673 14.35H12.334C11.9778 14.35 11.684 14.6438 11.684 15C11.684 15.3562 11.9778 15.65 12.334 15.65Z" fill="#5030E5" stroke="#5030E5" stroke-width="0.3"/>
</svg>
