<svg width="16" height="16" viewBox="0 0 16 16" fill="none" xmlns="http://www.w3.org/2000/svg">
<path d="M5.33301 1.33203V3.33203" stroke="#787486" stroke-width="1.3" stroke-miterlimit="10" stroke-linecap="round" stroke-linejoin="round"/>
<path d="M10.667 1.33203V3.33203" stroke="#787486" stroke-width="1.3" stroke-miterlimit="10" stroke-linecap="round" stroke-linejoin="round"/>
<path d="M10.6667 2.33203C12.8867 2.45203 14 3.2987 14 6.43203V10.552C14 13.2987 13.3333 14.672 10 14.672H6C2.66667 14.672 2 13.2987 2 10.552V6.43203C2 3.2987 3.11333 2.4587 5.33333 2.33203H10.6667Z" stroke="#787486" stroke-width="1.3" stroke-miterlimit="10" stroke-linecap="round" stroke-linejoin="round"/>
<path d="M13.8337 11.7344H2.16699" stroke="#787486" stroke-width="1.3" stroke-miterlimit="10" stroke-linecap="round" stroke-linejoin="round"/>
<path d="M7.99967 5.5C7.17967 5.5 6.48634 5.94667 6.48634 6.81333C6.48634 7.22667 6.67967 7.54 6.97301 7.74C6.56634 7.98 6.33301 8.36667 6.33301 8.82C6.33301 9.64667 6.96634 10.16 7.99967 10.16C9.02634 10.16 9.66634 9.64667 9.66634 8.82C9.66634 8.36667 9.43301 7.97333 9.01967 7.74C9.31967 7.53333 9.50634 7.22667 9.50634 6.81333C9.50634 5.94667 8.81967 5.5 7.99967 5.5ZM7.99967 7.39333C7.65301 7.39333 7.39967 7.18667 7.39967 6.86C7.39967 6.52667 7.65301 6.33333 7.99967 6.33333C8.34634 6.33333 8.59967 6.52667 8.59967 6.86C8.59967 7.18667 8.34634 7.39333 7.99967 7.39333ZM7.99967 9.33333C7.55967 9.33333 7.23967 9.11333 7.23967 8.71333C7.23967 8.31333 7.55967 8.1 7.99967 8.1C8.43967 8.1 8.75967 8.32 8.75967 8.71333C8.75967 9.11333 8.43967 9.33333 7.99967 9.33333Z" fill="#787486"/>
</svg>
