<svg width="16" height="16" viewBox="0 0 16 16" fill="none" xmlns="http://www.w3.org/2000/svg">
<path d="M6.10573 7.74536C6.08573 7.74536 6.0724 7.74536 6.0524 7.74536C6.01906 7.7387 5.9724 7.7387 5.9324 7.74536C3.99906 7.68536 2.53906 6.16536 2.53906 4.29203C2.53906 2.38536 4.0924 0.832031 5.99906 0.832031C7.90573 0.832031 9.45906 2.38536 9.45906 4.29203C9.4524 6.16536 7.98573 7.68536 6.12573 7.74536C6.11906 7.74536 6.1124 7.74536 6.10573 7.74536ZM5.99906 1.83203C4.64573 1.83203 3.53906 2.9387 3.53906 4.29203C3.53906 5.62536 4.57906 6.6987 5.90573 6.74536C5.94573 6.7387 6.0324 6.7387 6.11906 6.74536C7.42573 6.68536 8.4524 5.61203 8.45906 4.29203C8.45906 2.9387 7.3524 1.83203 5.99906 1.83203Z" fill="#787486"/>
<path d="M11.0256 7.83464C11.0056 7.83464 10.9856 7.83464 10.9656 7.82797C10.6923 7.85464 10.4123 7.6613 10.3856 7.38797C10.3589 7.11464 10.5256 6.86797 10.7989 6.83464C10.8789 6.82797 10.9656 6.82797 11.0389 6.82797C12.0123 6.77464 12.7723 5.97464 12.7723 4.99464C12.7723 3.9813 11.9523 3.1613 10.9389 3.1613C10.6656 3.16797 10.4389 2.9413 10.4389 2.66797C10.4389 2.39464 10.6656 2.16797 10.9389 2.16797C12.4989 2.16797 13.7723 3.4413 13.7723 5.0013C13.7723 6.53464 12.5723 7.77464 11.0456 7.83464C11.0389 7.83464 11.0323 7.83464 11.0256 7.83464Z" fill="#787486"/>
<path d="M6.11307 15.0346C4.80641 15.0346 3.49307 14.7013 2.49974 14.0346C1.57307 13.4213 1.06641 12.5813 1.06641 11.668C1.06641 10.7546 1.57307 9.90797 2.49974 9.28797C4.49974 7.9613 7.73974 7.9613 9.72641 9.28797C10.6464 9.9013 11.1597 10.7413 11.1597 11.6546C11.1597 12.568 10.6531 13.4146 9.72641 14.0346C8.72641 14.7013 7.41974 15.0346 6.11307 15.0346ZM3.05307 10.128C2.41307 10.5546 2.06641 11.1013 2.06641 11.6746C2.06641 12.2413 2.41974 12.788 3.05307 13.208C4.71307 14.3213 7.51307 14.3213 9.17307 13.208C9.81307 12.7813 10.1597 12.2346 10.1597 11.6613C10.1597 11.0946 9.80641 10.548 9.17307 10.128C7.51307 9.0213 4.71307 9.0213 3.05307 10.128Z" fill="#787486"/>
<path d="M12.2268 13.8333C11.9934 13.8333 11.7868 13.6733 11.7401 13.4333C11.6868 13.16 11.8601 12.9 12.1268 12.84C12.5468 12.7533 12.9334 12.5867 13.2334 12.3533C13.6134 12.0667 13.8201 11.7067 13.8201 11.3267C13.8201 10.9467 13.6134 10.5867 13.2401 10.3067C12.9468 10.08 12.5801 9.92001 12.1468 9.82001C11.8801 9.76001 11.7068 9.49335 11.7668 9.22001C11.8268 8.95335 12.0934 8.78001 12.3668 8.84001C12.9401 8.96668 13.4401 9.19335 13.8468 9.50668C14.4668 9.97335 14.8201 10.6333 14.8201 11.3267C14.8201 12.02 14.4601 12.68 13.8401 13.1533C13.4268 13.4733 12.9068 13.7067 12.3334 13.82C12.2934 13.8333 12.2601 13.8333 12.2268 13.8333Z" fill="#787486"/>
</svg>
